# AST/ASF file generated using VICON BodyLanguage
# -----------------------------------------------
:version 1.10
:name VICON
:units
  mass 1.0
  length 0.45
  angle deg
:documentation
   .ast/.asf automatically generated from VICON data using
   VICON BodyBuilder and BodyLanguage model FoxedUp or BRILLIANT.MOD
:root
   order TX TY TZ RX RY RZ
   axis XYZ
   position 0 0 0  
   orientation 0 0 0 
:bonedata
  begin
     id 1 
     name lhipjoint
     direction 0.62366 -0.717238 0.310833 
     length 2.53602 
     axis 0 0 0  XYZ
  end
  begin
     id 2 
     name lfemur
     direction 0.34202 -0.939693 0  
     length 7.40817  
     axis 0 0 20  XYZ
    dof rx ry rz
    limits (-160.0 20.0)
           (-70.0 70.0)
           (-60.0 70.0)
  end
  begin
     id 3 
     name ltibia
     direction 0.34202 -0.939693 0   
     length 7.7045   
     axis 0 0 20   XYZ
    dof rx
    limits (-10.0 170.0)
  end
  begin
     id 4 
     name lfoot
     direction 0.0673888 -0.185149 0.980397   
     length 2.09456   
     axis -90 7.62852e-016 20   XYZ
    dof rx rz
    limits (-45.0 90.0)
           (-70.0 20.0)
  end
  begin
     id 5 
     name ltoes
     direction 1.53575e-011 -4.21994e-011 1   
     length 1.05543   
     axis -90 7.62852e-016 20   XYZ
    dof rx
    limits (-90.0 20.0)
  end
  begin
     id 6 
     name rhipjoint
     direction -0.489018 -0.800347 0.346851   
     length 2.27268  
     axis 0 0 0  XYZ 
  end
  begin
     id 7 
     name rfemur
     direction -0.34202 -0.939693 0   
     length 7.55487   
     axis 0 0 -20   XYZ
    dof rx ry rz
    limits (-160.0 20.0)
           (-70.0 70.0)
           (-70.0 60.0)
  end
  begin
     id 8 
     name rtibia
     direction -0.34202 -0.939693 0   
     length 7.78969   
     axis 0 0 -20   XYZ
    dof rx
    limits (-10.0 170.0)
 end
 begin
     id 9 
     name rfoot
     direction -0.0859318 -0.236096 0.967923   
     length 2.19143  
     axis -90 -7.62852e-016 -20   XYZ
    dof rx rz
    limits (-45.0 90.0)
           (-20.0 70.0)
  end
  begin
     id 10 
     name rtoes
     direction -1.53538e-011 -4.21989e-011 1   
     length 1.09845   
     axis -90 -7.62852e-016 -20   XYZ
    dof rx
    limits (-90.0 20.0)
  end
  begin
     id 11 
     name lowerback
     direction -0.00762546 0.998978 -0.0445553   
     length 1.98161   
     axis 0 0 0   XYZ
    dof rx ry rz
    limits (-20.0 45.0)
           (-30.0 30.0)
           (-30.0 30.0)
  end
  begin
     id 12 
     name upperback
     direction 0.0422361 0.998867 -0.0219156   
     length 1.97558   
     axis 0 0 0   XYZ
    dof rx ry rz
    limits (-20.0 45.0)
           (-30.0 30.0)
           (-30.0 30.0)
  end
  begin
     id 13 
     name thorax
     direction 0.0442465 0.999021 7.47603e-005   
     length 1.97799   
     axis 0 0 0   XYZ
    dof rx ry rz
    limits (-20.0 45.0)
           (-30.0 30.0)
           (-30.0 30.0)
  end
  begin
     id 14 
     name lowerneck
     direction 0.00312169 0.984641 0.174564   
     length 1.78995   
     axis 0 0 0   XYZ
    dof rx ry rz
    limits (-20.0 45.0)
           (-30.0 30.0)
           (-30.0 30.0)
  end
  begin
     id 15 
     name upperneck
     direction -0.0383028 0.985255 -0.166749   
     length 1.83053   
     axis 0 0 0   XYZ
    dof rx ry rz
    limits (-20.0 45.0)
           (-30.0 30.0)
           (-30.0 30.0)
  end
  begin
     id 16
     name head
     direction -0.0129546 0.997059 -0.0755386  
     length 1.84088  
     axis 0 0 0   XYZ
    dof rx ry rz
    limits (-20.0 45.0)
           (-30.0 30.0)
           (-30.0 30.0)
  end
  begin
     id 17 
     name lclavicle
     direction 0.912857 0.370519 -0.171488  
     length 3.51279  
     axis 0 0 0   XYZ
    dof ry rz
    limits (-20.0 10.0)
           (0.0 20.0)
  end
  begin
     id 18 
     name lhumerus
     direction 1 -4.48962e-011 3.64361e-027   
     length 4.95663   
     axis 180 -30 -90   XYZ
    dof rx ry rz
    limits (-60.0 90.0)
           (-90.0 90.0)
           (-90.0 90.0)
  end
  begin
     id 19
     name lradius
     direction 1 -4.48974e-011 5.97202e-027   
     length 3.38177   
     axis 180 -30 -90   XYZ
    dof rx
    limits (-10.0 170.0)
  end
  begin
     id 20
     name lwrist
     direction 1 -4.4896e-011 9.83288e-027   
     length 1.69088   
     axis -9.31221e-015 90 90   XYZ
    dof ry
    limits (-180.0 0.0)
 end
  begin
     id 21 
     name lhand
     direction 1 -4.4902e-011 1.96551e-026   
     length 0.662909   
     axis -1.25475e-014 90 90   XYZ
    dof rx rz
    limits (-90.0 90.0)
           (-45.0 45.0)
  end
  begin
     id 22 
     name lfingers
     direction 1 -4.48971e-011 3.93277e-026   
     length 0.534454   
     axis -2.50945e-014 90 90   XYZ
    dof rx
    limits (0.0 90.0)
  end
  begin
     id 23
     name lthumb
     direction 0.707107 -6.34933e-011 0.707107   
     length 0.767373   
     axis -90 45 -4.80359e-014   XYZ
    dof rx rz
    limits (-45.0 45.0)
           (-45.0 45.0)
  end
  begin
     id 24 
     name rclavicle
     direction -0.900919 0.395364 -0.178976   
     length 3.40627  
     axis 0 0 0   XYZ 
    dof ry rz
    limits (-10.0 20.0)
           (-20.0 0.0)
  end
  begin
     id 25 
     name rhumerus
     direction -1 -4.48969e-011 1.03875e-027  
     length 5.08365   
     axis 180 30 90   XYZ
    dof rx ry rz
    limits (-90.0 60.0)
           (-90.0 90.0)
           (-90.0 90.0)
  end
  begin
     id 26 
     name rradius
     direction -1 -4.48951e-011 5.02733e-027   
     length 3.35984   
     axis 180 30 90   XYZ
    dof rx
    limits (-10.0 170.0)
  end
  begin
     id 27 
     name rwrist
     direction -1 -4.49011e-011 9.82828e-027   
     length 1.67992   
     axis -9.31221e-015 -90 -90   XYZ
    dof ry
    limits (-180.0 0.0)
  end
  begin
     id 28
     name rhand
     direction -1 -4.48894e-011 1.96774e-026   
     length 0.820764   
     axis -1.25475e-014 -90 -90   XYZ
    dof rx rz
    limits (-90.0 90.0)
           (-45.0 45.0)
  end
  begin
     id 29
     name rfingers
     direction -1 -4.49095e-011 3.92833e-026   
     length 0.661721   
     axis -2.50945e-014 -90 -90   XYZ
    dof rx
    limits (0.0 90.0)
  end
  begin
     id 30
     name rthumb
     direction -0.707107 -6.34881e-011 0.707107   
     length 0.950103   
     axis -90 -45 4.80359e-014   XYZ
    dof rx rz
    limits (-45.0 45.0)
           (-45.0 45.0)
  end
:hierarchy
  begin
    root lhipjoint rhipjoint lowerback
    lhipjoint lfemur
    lfemur ltibia
    ltibia lfoot
    lfoot ltoes
    rhipjoint rfemur
    rfemur rtibia
    rtibia rfoot
    rfoot rtoes
    lowerback upperback
    upperback thorax
    thorax lowerneck lclavicle rclavicle
    lowerneck upperneck
    upperneck head
    lclavicle lhumerus
    lhumerus lradius
    lradius lwrist
    lwrist lhand lthumb
    lhand lfingers
    rclavicle rhumerus
    rhumerus rradius
    rradius rwrist
    rwrist rhand rthumb
    rhand rfingers
  end

#!OML:ASF I:\golf\golf\golf 2\Subject 1\2002-09-07\Subject1.ASF
:FULLY-SPECIFIED
:DEGREES
31
root -5.9963 17.882 0.271038 -86.6708 85.3113 -103.715
lowerback -1.16659 2.13511 -1.21952
upperback 3.53022 2.84436 4.09934
thorax 4.03425 1.34497 5.06896
lowerneck -14.7927 -2.23042 1.40203
upperneck 39.2601 -0.502066 -3.48463
head 16.6121 0.0940436 -1.71814
rclavicle 2.26615e-014 3.4191e-014
rhumerus -6.99857 -5.72781 -102.084
rradius 22.6413
rwrist -40.6364
rhand -12.7007 -8.42121
rfingers 7.12502
rthumb 13.3817 -37.9715
lclavicle 2.26615e-014 3.4191e-014
lhumerus -9.70647 -44.9825 109.703
lradius 23.5881
lwrist 37.6006
lhand -10.7775 71.5653
lfingers 7.12502
lthumb -164.765 79.0157
rfemur -27.5753 -0.54685 12.2867
rtibia 22.836
rfoot -7.14843 -9.40518
rtoes -16.9288
lfemur -28.7207 9.20757 -7.24283
ltibia 26.4365
lfoot -9.68806 -0.811258
ltoes -20.0205
32
root -5.99626 17.8805 0.270306 -86.6548 85.3535 -103.704
lowerback -1.18745 2.14846 -1.29282
upperback 3.53518 2.86418 4.08791
thorax 4.04658 1.35205 5.10048
lowerneck -14.7747 -2.23744 1.46722
upperneck 39.2316 -0.518324 -3.53192
head 16.5904 0.0899368 -1.75285
rclavicle -1.98785e-014 -4.69132e-014
rhumerus -6.91304 -5.94952 -102.099
rradius 22.4234
rwrist -39.9505
rhand -12.9279 -8.33039
rfingers 7.12502
rthumb 13.1627 -37.8949
lclavicle -1.98785e-014 -4.69132e-014
lhumerus -9.63886 -45.1236 109.626
lradius 23.5301
lwrist 37.5975
lhand -10.5986 71.7181
lfingers 7.12502
lthumb -164.593 78.8761
rfemur -27.592 -0.500303 12.2279
rtibia 22.8534
rfoot -6.85178 -9.52399
rtoes -15.4747
lfemur -28.7408 9.24917 -7.3104
ltibia 26.4542
lfoot -9.73618 -0.840314
ltoes -20.297
33
root -5.99689 17.8804 0.270176 -85.9267 85.3929 -102.931
lowerback -1.12106 2.19759 -1.35677
upperback 3.53692 2.93262 4.06992
thorax 4.00199 1.38517 5.11691
lowerneck -14.7814 -2.25864 1.50089
upperneck 39.2441 -0.559397 -3.53274
head 16.5964 0.0788427 -1.76674
rclavicle -3.57812e-015 3.4191e-014
rhumerus -6.86007 -6.21912 -102.104
rradius 22.2624
rwrist -39.4749
rhand -13.1252 -8.41303
rfingers 7.12502
rthumb 12.9725 -37.9897
lclavicle -3.57812e-015 3.4191e-014
lhumerus -9.68239 -45.3174 109.622
lradius 23.5235
lwrist 37.673
lhand -10.4312 71.6642
lfingers 7.12502
lthumb -164.432 78.9424
rfemur -27.5701 -0.393329 12.1621
rtibia 22.8806
rfoot -6.75474 -9.54448
rtoes -14.5394
lfemur -28.6816 9.34126 -7.36417
ltibia 26.4648
lfoot -9.78393 -0.858348
ltoes -20.5938
34
root -5.99897 17.8801 0.267365 -85.7737 85.4059 -102.744
lowerback -1.01394 2.22386 -1.3628
upperback 3.51802 2.96913 4.06073
thorax 3.91809 1.40535 5.1055
lowerneck -14.8336 -2.27014 1.50051
upperneck 39.3097 -0.576598 -3.51513
head 16.6442 0.0764262 -1.76391
rclavicle -1.47101e-014 -3.57812e-014
rhumerus -6.82804 -6.50522 -102.109
rradius 22.1062
rwrist -39.3089
rhand -13.3164 -8.51875
rfingers 7.12502
rthumb 12.7882 -38.1071
lclavicle -1.47101e-014 -3.57812e-014
lhumerus -9.76049 -45.2715 109.688
lradius 23.4641
lwrist 37.5093
lhand -10.1522 71.5622
lfingers 7.12502
lthumb -164.163 79.0656
rfemur -27.562 -0.403965 12.14
rtibia 22.9151
rfoot -6.84871 -9.58298
rtoes -6.10183
lfemur -28.6576 9.34073 -7.37419
ltibia 26.4788
lfoot -9.81172 -0.860356
ltoes -20.2083
35
root -5.99994 17.8797 0.26346 -86.1595 85.4423 -103.124
lowerback -0.97356 2.19916 -1.3684
upperback 3.51372 2.9366 4.05167
thorax 3.89402 1.38954 5.09575
lowerneck -14.8507 -2.25604 1.49373
upperneck 39.3192 -0.540305 -3.54497
head 16.6552 0.086158 -1.77007
rclavicle 1.11319e-014 -2.06736e-014
rhumerus -6.8075 -6.61563 -102.115
rradius 21.9551
rwrist -39.1897
rhand -13.5231 -8.55995
rfingers 7.12502
rthumb 12.5889 -38.1606
lclavicle 1.11319e-014 -2.06736e-014
lhumerus -9.78326 -44.9911 109.737
lradius 23.3349
lwrist 37.195
lhand -9.88965 71.201
lfingers 7.12502
lthumb -163.91 79.447
rfemur -27.5663 -0.451374 12.0933
rtibia 22.9468
rfoot -6.75863 -9.57919
rtoes -7.22045
lfemur -28.6821 9.32101 -7.43085
ltibia 26.5025
lfoot -9.82317 -0.8942
ltoes -19.8945
36
root -6.00036 17.8787 0.260282 -86.7284 85.4913 -103.692
lowerback -0.950619 2.17242 -1.37699
upperback 3.51054 2.90126 4.03345
thorax 3.88157 1.37197 5.07894
lowerneck -14.8518 -2.24818 1.46247
upperneck 39.3229 -0.51699 -3.54531
head 16.6589 0.0910135 -1.76059
rclavicle -3.1408e-014 -8.82604e-014
rhumerus -6.73928 -6.96518 -102.145
rradius 21.7148
rwrist -38.8043
rhand -13.4751 -8.55072
rfingers 7.12502
rthumb 12.6352 -38.1486
lclavicle -3.1408e-014 -8.82604e-014
lhumerus -9.83173 -44.9941 109.748
lradius 23.2743
lwrist 37.1598
lhand -9.75299 70.9645
lfingers 7.12502
lthumb -163.778 79.6942
rfemur -27.5615 -0.464677 12.0183
rtibia 22.9619
rfoot -6.73997 -9.64387
rtoes -7.66223
lfemur -28.7211 9.34069 -7.5224
ltibia 26.5402
lfoot -9.79896 -0.950046
ltoes -20.2407
37
root -6.00166 17.8766 0.257271 -87.211 85.4561 -104.178
lowerback -0.90456 2.17552 -1.27142
upperback 3.4975 2.90327 4.00499
thorax 3.84782 1.37753 4.98644
lowerneck -14.8941 -2.25642 1.45906
upperneck 39.372 -0.535903 -3.51374
head 16.6955 0.0885155 -1.7509
rclavicle 8.34896e-015 -1.82882e-014
rhumerus -6.65912 -7.45998 -102.194
rradius 21.5319
rwrist -38.5841
rhand -13.2162 -8.72398
rfingers 7.12502
rthumb 12.8848 -38.3062
lclavicle 8.34896e-015 -1.82882e-014
lhumerus -9.90079 -45.3101 109.729
lradius 23.3232
lwrist 37.2145
lhand -9.60434 71.2158
lfingers 7.12502
lthumb -163.635 79.4546
rfemur -27.5698 -0.525798 12.0562
rtibia 22.9755
rfoot -6.78004 -9.63796
rtoes -7.17973
lfemur -28.77 9.33868 -7.50154
ltibia 26.5876
lfoot -9.72929 -0.997092
ltoes -20.4503
38
root -6.00248 17.8761 0.254352 -86.9875 85.4449 -103.944
lowerback -0.864468 2.18226 -1.23958
upperback 3.4994 2.9119 4.00095
thorax 3.82791 1.38341 4.96249
lowerneck -14.9381 -2.24773 1.4355
upperneck 39.426 -0.510056 -3.5093
head 16.7374 0.0977954 -1.74182
rclavicle -3.29983e-014 -6.04305e-014
rhumerus -6.65491 -7.65534 -102.167
rradius 21.4823
rwrist -38.6267
rhand -13.0001 -9.03376
rfingers 7.12502
rthumb 13.0931 -38.6028
lclavicle -3.29983e-014 -6.04305e-014
lhumerus -9.91786 -45.4326 109.722
lradius 23.3299
lwrist 37.2116
lhand -9.493 71.4516
lfingers 7.12502
lthumb -163.528 79.2277
rfemur -27.5758 -0.579451 12.0793
rtibia 22.9907
rfoot -6.90454 -9.46764
rtoes -14.4668
lfemur -28.7804 9.31075 -7.48545
ltibia 26.6383
lfoot -9.73736 -0.972843
ltoes -20.1929
